<?xml version="1.0" encoding="UTF-8" standalone="no"?>
<!-- Created with Inkscape (http://www.inkscape.org/) -->

<svg
   width="103.65624mm"
   height="103.90319mm"
   viewBox="0 0 103.65624 103.90319"
   version="1.1"
   id="svg1"
   xml:space="preserve"
   xmlns="http://www.w3.org/2000/svg"
   xmlns:svg="http://www.w3.org/2000/svg"><defs
     id="defs1" /><g
     id="layer1"
     transform="translate(-68.414308,-330.97112)"><path
       style="fill:#000000"
       d="m 97.383115,434.66735 c -2.90908,-0.57171 -5.83262,-2.89383 -7.238371,-5.74931 -0.803951,-1.63305 -0.866276,-1.95041 -0.866276,-4.41105 0,-2.36093 0.08317,-2.83145 0.759178,-4.29488 0.933879,-2.0217 3.252909,-4.32051 5.307279,-5.26104 4.890805,-2.23908 11.001255,-0.036 13.482835,4.86117 3.89188,7.68027 -2.92559,16.52933 -11.444645,14.85511 z m 51.858345,0 c -2.90909,-0.57171 -5.83263,-2.89383 -7.23837,-5.74931 -0.80432,-1.6338 -0.86628,-1.94969 -0.86628,-4.41661 0,-2.46016 0.0634,-2.7857 0.85556,-4.39486 1.65408,-3.3599 4.9358,-5.67601 8.4603,-5.97094 4.44869,-0.37225 8.46368,1.95851 10.3899,6.03149 3.60807,7.62927 -3.2087,16.14956 -11.60111,14.50023 z M 96.920565,408.64977 c -5.2848,-1.28254 -8.901654,-7.51964 -7.385318,-12.73565 0.24945,-0.85808 1.662938,-3.76983 3.141088,-6.47057 1.47815,-2.70073 3.14583,-5.79974 3.70596,-6.88669 l 1.01841,-1.97627 -9.318487,-19.6254 -9.318483,-19.62541 -3.494492,-0.0861 c -3.296699,-0.0812 -3.556555,-0.12717 -4.590985,-0.81253 -3.223995,-2.13604 -2.952296,-7.1817 0.481039,-8.93326 0.934211,-0.47659 1.563225,-0.52672 6.609796,-0.52672 7.721638,0 7.586688,-0.082 10.665319,6.48229 l 1.737236,3.70417 39.261552,0.13229 39.26155,0.13229 0.96565,0.73657 c 1.77189,1.35154 2.73665,3.679 2.3097,5.57204 -0.21126,0.9367 -18.10001,33.5245 -19.91463,36.27833 -1.06368,1.61422 -2.6305,2.83497 -4.57004,3.56064 -1.44653,0.54122 -1.84842,0.55138 -21.81349,0.55138 h -20.33981 l -2.79253,5.09323 -2.792525,5.09323 29.161535,0.13229 29.16153,0.13229 1.06288,0.60941 c 3.63897,2.08644 3.53361,7.30156 -0.18495,9.15459 l -1.3787,0.68704 -29.64753,-0.0225 c -22.64414,-0.0172 -29.967325,-0.10011 -31.001275,-0.35103 z m 53.970335,-43.9167 c 3.87582,-7.04265 7.04695,-12.87672 7.04695,-12.96459 0,-0.0879 -14.10891,-0.15976 -31.35312,-0.15976 -17.24422,0 -31.353135,0.042 -31.353135,0.0934 0,0.11124 10.724815,22.4436 11.740215,24.44673 l 0.70412,1.38906 h 18.08401 18.08401 z"
       id="path1" /></g></svg>
