<?xml version="1.0" encoding="UTF-8" standalone="no"?>
<!-- Created with Inkscape (http://www.inkscape.org/) -->

<svg
   width="32.255306mm"
   height="35.23687mm"
   viewBox="0 0 32.255306 35.23687"
   version="1.1"
   id="svg1"
   xml:space="preserve"
   xmlns="http://www.w3.org/2000/svg"
   xmlns:svg="http://www.w3.org/2000/svg"><defs
     id="defs1" /><g
     id="layer1"
     transform="translate(-125.54712,-190.26133)"><path
       style="fill:#000000"
       d="m 127.46195,224.96333 c -0.47427,-0.28917 -1.0989,-0.9138 -1.38807,-1.38807 -0.50067,-0.82116 -0.52581,-1.35108 -0.52675,-11.10247 -7.4e-4,-7.61222 0.0836,-10.42582 0.32864,-10.96362 0.37997,-0.83393 13.56193,-10.83364 14.63696,-11.10346 1.83283,-0.46001 2.51404,-0.09 9.54313,5.1834 5.96195,4.47281 6.8191,5.20799 7.27582,6.24048 0.48882,1.10505 0.51335,1.72314 0.43953,11.07404 -0.0756,9.57083 -0.0968,9.92875 -0.63169,10.65024 -0.30442,0.41061 -0.94711,1.01446 -1.42819,1.34189 -0.83089,0.5655 -1.12507,0.59531 -5.87468,0.59531 -6.76421,0 -6.29884,0.4878 -6.29884,-6.60256 v -5.30369 h -1.98438 -1.98437 v 5.40475 5.40476 l -0.69714,0.54837 c -0.64869,0.51026 -1.03946,0.5483 -5.6224,0.54738 -4.4479,-8.9e-4 -5.00883,-0.052 -5.78757,-0.52675 z m 8.07753,-9.04839 0.0715,-5.47509 0.69182,-0.54418 c 0.63757,-0.50151 1.05038,-0.54418 5.2647,-0.54418 2.51509,0 4.76563,0.074 5.00119,0.16435 1.01549,0.38968 1.20248,1.45237 1.20248,6.83396 v 5.17252 h 2.91042 2.91041 v -9.06652 -9.06651 l -5.91385,-4.42724 c -3.25262,-2.43497 -6.00873,-4.42723 -6.12469,-4.42723 -0.11596,0 -2.87207,1.99226 -6.12469,4.42723 l -5.91385,4.42724 v 9.07518 9.07518 l 2.97656,-0.0748 2.97657,-0.0748 z"
       id="path1" /></g></svg>
