<?xml version="1.0" encoding="UTF-8" standalone="no"?>
<!-- Created with Inkscape (http://www.inkscape.org/) -->

<svg
   width="103.90299mm"
   height="80.923264mm"
   viewBox="0 0 103.90299 80.923264"
   version="1.1"
   id="svg1"
   xml:space="preserve"
   xmlns="http://www.w3.org/2000/svg"
   xmlns:svg="http://www.w3.org/2000/svg"><defs
     id="defs1" /><g
     id="layer1"
     transform="translate(-378.6872,-330.82458)"><path
       style="fill:#000000;stroke-width:0.999997"
       d="m 383.3028,411.59611 c -2.56687,-0.50913 -4.61557,-3.04679 -4.61557,-5.71716 0,-2.11491 1.28077,-4.16222 3.19144,-5.1015 l 1.28934,-0.63384 47.72547,0.0542 c 45.63771,0.0518 47.75874,0.0707 48.48608,0.4327 1.99427,0.99249 3.15386,2.91139 3.17536,5.25464 0.0228,2.47969 -1.15772,4.34403 -3.41496,5.39332 l -0.93783,0.43596 -46.99604,0.0308 c -25.84782,0.0169 -47.4043,-0.0501 -47.90329,-0.14911 z m -0.70833,-34.67062 c -1.03466,-0.36923 -2.13212,-1.22464 -2.85958,-2.22888 -2.05508,-2.83694 -0.77693,-7.42886 2.48013,-8.91019 0.6791,-0.30886 4.887,-0.34351 47.84483,-0.39383 33.26814,-0.039 47.42155,0.0113 48.19435,0.17107 1.54648,0.31981 2.97528,1.49628 3.70541,3.05101 0.45574,0.97047 0.5704,1.52097 0.57987,2.78393 0.0146,1.9468 -0.50481,3.14967 -1.88435,4.364 -1.7953,1.58028 2.31882,1.46128 -50.16419,1.45108 -38.81534,-0.008 -47.25227,-0.0583 -47.89647,-0.28819 z m -0.80561,-35.08885 c -1.3603,-0.71063 -2.35561,-1.96022 -2.81213,-3.53058 -0.86667,-2.98127 0.8654,-6.31804 3.73112,-7.18786 1.28981,-0.39149 94.66463,-0.39149 95.95443,0 3.26222,0.99016 4.89347,5.02227 3.32709,8.22384 -0.32976,0.67401 -0.92498,1.45744 -1.38276,1.82002 -1.70842,1.35309 2.14044,1.25661 -50.13236,1.25661 h -47.57126 z"
       id="path2" /></g></svg>
