<?xml version="1.0" encoding="UTF-8" standalone="no"?>
<!-- Created with Inkscape (http://www.inkscape.org/) -->

<svg
   width="92.13485mm"
   height="103.65601mm"
   viewBox="0 0 92.13485 103.65601"
   version="1.1"
   id="svg1"
   xml:space="preserve"
   xmlns="http://www.w3.org/2000/svg"
   xmlns:svg="http://www.w3.org/2000/svg"><defs
     id="defs1" /><g
     id="layer1"
     transform="translate(-462.53343,-307.66061)"><path
       style="fill:#000000;stroke-width:1"
       d="m 478.82788,411.26116 c -3.21569,-0.37278 -5.22677,-1.35272 -7.38088,-3.59649 -1.4553,-1.51588 -2.28385,-2.96721 -2.84866,-4.98984 l -0.2907,-1.04107 -0.0284,-38.38243 -0.0285,-38.38243 -0.35509,-0.002 c -1.1913,-0.005 -2.75024,-0.69862 -3.69826,-1.64441 -0.71201,-0.71033 -1.09836,-1.33298 -1.42055,-2.28937 -0.32472,-0.96395 -0.32454,-2.66816 4e-4,-3.64685 0.44143,-1.32958 1.50805,-2.60342 2.72145,-3.25016 1.29818,-0.69192 0.85947,-0.6707 13.90454,-0.67249 l 11.86266,-0.002 0.002,-0.35616 c 0.003,-0.60979 0.31765,-1.73228 0.67288,-2.3988 0.65758,-1.23372 2.04644,-2.35164 3.45726,-2.7828 0.44864,-0.13711 2.38085,-0.16098 13.19118,-0.16297 12.42242,-0.002 12.6794,0.002 13.38591,0.22014 0.87286,0.26961 1.89181,0.93071 2.50396,1.62459 0.78891,0.89427 1.4163,2.41841 1.4163,3.44068 v 0.41532 h 11.90164 c 10.4813,0 11.98121,0.0206 12.5684,0.17277 2.90653,0.75315 4.66881,3.44653 4.23851,6.47789 -0.35533,2.50316 -2.31996,4.45093 -4.8282,4.78675 l -0.86519,0.11585 -0.0296,38.41385 -0.0295,38.41385 -0.24866,0.93147 c -0.3188,1.19421 -1.1572,2.91122 -1.89959,3.8903 -2.04662,2.69911 -4.78026,4.2896 -8.0113,4.66111 -0.83222,0.0957 -59.04642,0.12966 -59.86356,0.035 z m 58.57361,-48.91391 V 324.8689 h -28.82106 -28.82107 v 37.47835 37.47835 h 28.82107 28.82106 z m -41.31926,25.86127 c -2.28487,-0.35776 -4.12238,-2.0554 -4.65083,-4.2968 -0.24422,-1.03587 -0.24474,-42.09089 -4.2e-4,-43.12661 0.6119,-2.59529 2.92649,-4.40193 5.64743,-4.40807 1.5452,-0.003 2.8692,0.55463 4.00563,1.68855 0.84216,0.84031 1.35093,1.74298 1.56737,2.78084 0.086,0.41223 0.12109,6.66129 0.12109,21.53799 0,18.46388 -0.0199,21.03497 -0.16785,21.61041 -0.7369,2.86751 -3.54274,4.6802 -6.52229,4.21369 z m 23.1226,-4.2e-4 c -2.33627,-0.36361 -4.1942,-2.13323 -4.69249,-4.46945 -0.0897,-0.42034 -0.12342,-6.33696 -0.12225,-21.42403 10e-4,-17.98992 0.0238,-20.93723 0.16337,-21.52935 0.61191,-2.59528 2.9265,-4.40193 5.64744,-4.40807 1.54518,-0.003 2.86919,0.55462 4.00562,1.68856 0.84215,0.84029 1.35093,1.74296 1.56737,2.78083 0.17134,0.82168 0.17134,42.17996 0,43.00165 -0.29417,1.41062 -1.53636,3.09964 -2.72286,3.70231 -1.20779,0.61348 -2.60006,0.8515 -3.8462,0.65755 z"
       id="path2" /></g></svg>
